999
DXF file created by HALCON
  0
SECTION
  2
HEADER
  9
$ACADVER
  1
AC1009
  0
ENDSEC
  0
SECTION
  2
TABLES
  0
TABLE
  2
LTYPE
 70
1
  0
LTYPE
  2
CONTINUOUS
 70
0
  3
Solid line
 72
65
 73
0
 40
0
  0
ENDTAB
  0
TABLE
  2
LAYER
 70
1
  0
LAYER
  2
0
 70
0
 62
7
  6
CONTINUOUS
  0
ENDTAB
  0
TABLE
  2
APPID
 70
2
  0
APPID
  2
ACAD
 70
64
  0
APPID
  2
HALCON
 70
64
  0
ENDTAB
  0
ENDSEC
  0
SECTION
  2
BLOCKS
  0
ENDSEC
  0
SECTION
  2
ENTITIES
  0
POLYLINE
  8
0
 66
1
 10
0.0
 20
0.0
 30
0.0
 70
0
  0
VERTEX
  8
0
 10
3155.85522461
 20
1808.85778809
 30
0.0
  0
VERTEX
  8
0
 10
3155.85351563
 20
1807.85778809
 30
0.0
  0
VERTEX
  8
0
 10
3155.84838867
 20
1806.85778809
 30
0.0
  0
VERTEX
  8
0
 10
3155.83984375
 20
1805.85778809
 30
0.0
  0
VERTEX
  8
0
 10
3155.82788086
 20
1804.85791016
 30
0.0
  0
VERTEX
  8
0
 10
3155.81225586
 20
1803.85803223
 30
0.0
  0
VERTEX
  8
0
 10
3155.79345703
 20
1802.8581543
 30
0.0
  0
VERTEX
  8
0
 10
3155.77124023
 20
1801.85839844
 30
0.0
  0
VERTEX
  8
0
 10
3155.74560547
 20
1800.85876465
 30
0.0
  0
VERTEX
  8
0
 10
3155.71630859
 20
1799.85925293
 30
0.0
  0
VERTEX
  8
0
 10
3155.68383789
 20
1798.85974121
 30
0.0
  0
VERTEX
  8
0
 10
3155.64794922
 20
1797.86035156
 30
0.0
  0
VERTEX
  8
0
 10
3155.60839844
 20
1796.86120605
 30
0.0
  0
VERTEX
  8
0
 10
3155.56567383
 20
1795.86206055
 30
0.0
  0
VERTEX
  8
0
 10
3155.51953125
 20
1794.86315918
 30
0.0
  0
VERTEX
  8
0
 10
3155.46972656
 20
1793.86437988
 30
0.0
  0
VERTEX
  8
0
 10
3155.41674805
 20
1792.86572266
 30
0.0
  0
VERTEX
  8
0
 10
3155.36010742
 20
1791.86743164
 30
0.0
  0
VERTEX
  8
0
 10
3155.30029297
 20
1790.86914063
 30
0.0
  0
VERTEX
  8
0
 10
3155.23706055
 20
1789.87121582
 30
0.0
  0
VERTEX
  8
0
 10
3155.17016602
 20
1788.87341309
 30
0.0
  0
VERTEX
  8
0
 10
3155.10009766
 20
1787.87585449
 30
0.0
  0
VERTEX
  8
0
 10
3155.02636719
 20
1786.87854004
 30
0.0
  0
VERTEX
  8
0
 10
3154.94946289
 20
1785.8815918
 30
0.0
  0
VERTEX
  8
0
 10
3154.86889648
 20
1784.88476563
 30
0.0
  0
VERTEX
  8
0
 10
3154.78515625
 20
1783.88830566
 30
0.0
  0
VERTEX
  8
0
 10
3154.69775391
 20
1782.89208984
 30
0.0
  0
VERTEX
  8
0
 10
3154.60717773
 20
1781.89624023
 30
0.0
  0
VERTEX
  8
0
 10
3154.51318359
 20
1780.90063477
 30
0.0
  0
VERTEX
  8
0
 10
3154.41552734
 20
1779.90539551
 30
0.0
  0
VERTEX
  8
0
 10
3154.31469727
 20
1778.91052246
 30
0.0
  0
VERTEX
  8
0
 10
3154.21044922
 20
1777.91601563
 30
0.0
  0
VERTEX
  8
0
 10
3154.1027832
 20
1776.921875
 30
0.0
  0
VERTEX
  8
0
 10
3153.99145508
 20
1775.92797852
 30
0.0
  0
VERTEX
  8
0
 10
3153.87695313
 20
1774.93457031
 30
0.0
  0
VERTEX
  8
0
 10
3153.7590332
 20
1773.94152832
 30
0.0
  0
VERTEX
  8
0
 10
3153.63769531
 20
1772.94897461
 30
0.0
  0
VERTEX
  8
0
 10
3153.51293945
 20
1771.95678711
 30
0.0
  0
VERTEX
  8
0
 10
3153.38500977
 20
1770.96496582
 30
0.0
  0
VERTEX
  8
0
 10
3153.25341797
 20
1769.97375488
 30
0.0
  0
VERTEX
  8
0
 10
3153.1184082
 20
1768.98291016
 30
0.0
  0
VERTEX
  8
0
 10
3152.98022461
 20
1767.99243164
 30
0.0
  0
VERTEX
  8
0
 10
3152.83837891
 20
1767.00256348
 30
0.0
  0
VERTEX
  8
0
 10
3152.69335938
 20
1766.01318359
 30
0.0
  0
VERTEX
  8
0
 10
3152.54492188
 20
1765.02416992
 30
0.0
  0
VERTEX
  8
0
 10
3152.39306641
 20
1764.03588867
 30
0.0
  0
VERTEX
  8
0
 10
3152.23779297
 20
1763.04797363
 30
0.0
  0
VERTEX
  8
0
 10
3152.07910156
 20
1762.06066895
 30
0.0
  0
VERTEX
  8
0
 10
3151.91699219
 20
1761.07385254
 30
0.0
  0
VERTEX
  8
0
 10
3151.75170898
 20
1760.08764648
 30
0.0
  0
VERTEX
  8
0
 10
3151.58276367
 20
1759.10192871
 30
0.0
  0
VERTEX
  8
0
 10
3151.41064453
 20
1758.11694336
 30
0.0
  0
VERTEX
  8
0
 10
3151.23510742
 20
1757.13244629
 30
0.0
  0
VERTEX
  8
0
 10
3151.05615234
 20
1756.14855957
 30
0.0
  0
VERTEX
  8
0
 10
3150.87402344
 20
1755.1652832
 30
0.0
  0
VERTEX
  8
0
 10
3150.68823242
 20
1754.18273926
 30
0.0
  0
VERTEX
  8
0
 10
3150.49926758
 20
1753.20068359
 30
0.0
  0
VERTEX
  8
0
 10
3150.30688477
 20
1752.21936035
 30
0.0
  0
VERTEX
  8
0
 10
3150.11108398
 20
1751.23876953
 30
0.0
  0
VERTEX
  8
0
 10
3149.91210938
 20
1750.25878906
 30
0.0
  0
VERTEX
  8
0
 10
3149.7097168
 20
1749.27941895
 30
0.0
  0
VERTEX
  8
0
 10
3149.50390625
 20
1748.30090332
 30
0.0
  0
VERTEX
  8
0
 10
3149.29467773
 20
1747.32299805
 30
0.0
  0
VERTEX
  8
0
 10
3149.08203125
 20
1746.3458252
 30
0.0
  0
VERTEX
  8
0
 10
3148.86621094
 20
1745.36938477
 30
0.0
  0
VERTEX
  8
0
 10
3148.64697266
 20
1744.39367676
 30
0.0
  0
VERTEX
  8
0
 10
3148.42456055
 20
1743.41882324
 30
0.0
  0
VERTEX
  8
0
 10
3148.19873047
 20
1742.44470215
 30
0.0
  0
VERTEX
  8
0
 10
3147.96948242
 20
1741.47131348
 30
0.0
  0
VERTEX
  8
0
 10
3147.73681641
 20
1740.49865723
 30
0.0
  0
VERTEX
  8
0
 10
3147.50097656
 20
1739.52685547
 30
0.0
  0
VERTEX
  8
0
 10
3147.26171875
 20
1738.5559082
 30
0.0
  0
VERTEX
  8
0
 10
3147.01928711
 20
1737.58581543
 30
0.0
  0
VERTEX
  8
0
 10
3146.7734375
 20
1736.61645508
 30
0.0
  0
VERTEX
  8
0
 10
3146.52416992
 20
1735.64807129
 30
0.0
  0
VERTEX
  8
0
 10
3146.27172852
 20
1734.68041992
 30
0.0
  0
VERTEX
  8
0
 10
3146.01586914
 20
1733.71374512
 30
0.0
  0
VERTEX
  8
0
 10
3145.75683594
 20
1732.74780273
 30
0.0
  0
VERTEX
  8
0
 10
3145.49438477
 20
1731.78295898
 30
0.0
  0
VERTEX
  8
0
 10
3145.22875977
 20
1730.81884766
 30
0.0
  0
VERTEX
  8
0
 10
3144.9597168
 20
1729.85571289
 30
0.0
  0
VERTEX
  8
0
 10
3144.68725586
 20
1728.89355469
 30
0.0
  0
VERTEX
  8
0
 10
3144.41162109
 20
1727.93225098
 30
0.0
  0
VERTEX
  8
0
 10
3144.1328125
 20
1726.97192383
 30
0.0
  0
VERTEX
  8
0
 10
3143.85058594
 20
1726.01257324
 30
0.0
  0
VERTEX
  8
0
 10
3143.56518555
 20
1725.05419922
 30
0.0
  0
VERTEX
  8
0
 10
3143.27636719
 20
1724.09680176
 30
0.0
  0
VERTEX
  8
0
 10
3142.98413086
 20
1723.14038086
 30
0.0
  0
VERTEX
  8
0
 10
3142.68896484
 20
1722.18505859
 30
0.0
  0
VERTEX
  8
0
 10
3142.39038086
 20
1721.23059082
 30
0.0
  0
VERTEX
  8
0
 10
3142.08837891
 20
1720.27722168
 30
0.0
  0
VERTEX
  8
0
 10
3141.78320313
 20
1719.32495117
 30
0.0
  0
VERTEX
  8
0
 10
3141.47485352
 20
1718.37365723
 30
0.0
  0
VERTEX
  8
0
 10
3141.16333008
 20
1717.42346191
 30
0.0
  0
VERTEX
  8
0
 10
3140.84838867
 20
1716.47436523
 30
0.0
  0
VERTEX
  8
0
 10
3140.53027344
 20
1715.52636719
 30
0.0
  0
VERTEX
  8
0
 10
3140.20874023
 20
1714.5793457
 30
0.0
  0
VERTEX
  8
0
 10
3139.88427734
 20
1713.63354492
 30
0.0
  0
VERTEX
  8
0
 10
3139.55639648
 20
1712.68884277
 30
0.0
  0
VERTEX
  8
0
 10
3139.22509766
 20
1711.74523926
 30
0.0
  0
VERTEX
  8
0
 10
3138.89086914
 20
1710.80285645
 30
0.0
  0
VERTEX
  8
0
 10
3138.55322266
 20
1709.8614502
 30
0.0
  0
VERTEX
  8
0
 10
3138.21240234
 20
1708.92138672
 30
0.0
  0
VERTEX
  8
0
 10
3137.8684082
 20
1707.98242188
 30
0.0
  0
VERTEX
  8
0
 10
3137.52124023
 20
1707.04467773
 30
0.0
  0
VERTEX
  8
0
 10
3137.1706543
 20
1706.10803223
 30
0.0
  0
VERTEX
  8
0
 10
3136.81713867
 20
1705.17260742
 30
0.0
  0
VERTEX
  8
0
 10
3136.46020508
 20
1704.23852539
 30
0.0
  0
VERTEX
  8
0
 10
3136.1003418
 20
1703.30554199
 30
0.0
  0
VERTEX
  8
0
 10
3135.73706055
 20
1702.37390137
 30
0.0
  0
VERTEX
  8
0
 10
3135.37060547
 20
1701.44348145
 30
0.0
  0
VERTEX
  8
0
 10
3135.00097656
 20
1700.51428223
 30
0.0
  0
VERTEX
  8
0
 10
3134.62817383
 20
1699.58630371
 30
0.0
  0
VERTEX
  8
0
 10
3134.25219727
 20
1698.65966797
 30
0.0
  0
VERTEX
  8
0
 10
3133.87304688
 20
1697.734375
 30
0.0
  0
VERTEX
  8
0
 10
3133.49072266
 20
1696.81030273
 30
0.0
  0
VERTEX
  8
0
 10
3133.10522461
 20
1695.88769531
 30
0.0
  0
VERTEX
  8
0
 10
3132.71655273
 20
1694.96630859
 30
0.0
  0
VERTEX
  8
0
 10
3132.32470703
 20
1694.04614258
 30
0.0
  0
VERTEX
  8
0
 10
3131.9296875
 20
1693.12744141
 30
0.0
  0
VERTEX
  8
0
 10
3131.53173828
 20
1692.21020508
 30
0.0
  0
VERTEX
  8
0
 10
3131.13037109
 20
1691.29418945
 30
0.0
  0
VERTEX
  8
0
 10
3130.72607422
 20
1690.3795166
 30
0.0
  0
VERTEX
  8
0
 10
3130.31860352
 20
1689.46643066
 30
0.0
  0
VERTEX
  8
0
 10
3129.90795898
 20
1688.55456543
 30
0.0
  0
VERTEX
  8
0
 10
3129.49414063
 20
1687.64416504
 30
0.0
  0
VERTEX
  8
0
 10
3129.07739258
 20
1686.73522949
 30
0.0
  0
VERTEX
  8
0
 10
3128.6574707
 20
1685.82763672
 30
0.0
  0
VERTEX
  8
0
 10
3128.234375
 20
1684.92163086
 30
0.0
  0
VERTEX
  8
0
 10
3127.80810547
 20
1684.01696777
 30
0.0
  0
VERTEX
  8
0
 10
3127.37890625
 20
1683.11376953
 30
0.0
  0
VERTEX
  8
0
 10
3126.9465332
 20
1682.21203613
 30
0.0
  0
VERTEX
  8
0
 10
3126.51098633
 20
1681.31188965
 30
0.0
  0
VERTEX
  8
0
 10
3126.07250977
 20
1680.41320801
 30
0.0
  0
VERTEX
  8
0
 10
3125.63085938
 20
1679.51599121
 30
0.0
  0
VERTEX
  8
0
 10
3125.18603516
 20
1678.62023926
 30
0.0
  0
VERTEX
  8
0
 10
3124.73828125
 20
1677.72607422
 30
0.0
  0
VERTEX
  8
0
 10
3124.28759766
 20
1676.83349609
 30
0.0
  0
VERTEX
  8
0
 10
3123.83374023
 20
1675.94250488
 30
0.0
  0
VERTEX
  8
0
 10
3123.37670898
 20
1675.05297852
 30
0.0
  0
VERTEX
  8
0
 10
3122.91674805
 20
1674.16503906
 30
0.0
  0
VERTEX
  8
0
 10
3122.45385742
 20
1673.27868652
 30
0.0
  0
VERTEX
  8
0
 10
3121.98779297
 20
1672.3939209
 30
0.0
  0
VERTEX
  8
0
 10
3121.51855469
 20
1671.51074219
 30
0.0
  0
VERTEX
  8
0
 10
3121.04663086
 20
1670.62915039
 30
0.0
  0
VERTEX
  8
0
 10
3120.5715332
 20
1669.74926758
 30
0.0
  0
VERTEX
  8
0
 10
3120.09326172
 20
1668.87097168
 30
0.0
  0
VERTEX
  8
0
 10
3119.61206055
 20
1667.99438477
 30
0.0
  0
VERTEX
  8
0
 10
3119.12792969
 20
1667.11938477
 30
0.0
  0
VERTEX
  8
0
 10
3118.64086914
 20
1666.24597168
 30
0.0
  0
VERTEX
  8
0
 10
3118.15087891
 20
1665.37438965
 30
0.0
  0
VERTEX
  8
0
 10
3117.65771484
 20
1664.50439453
 30
0.0
  0
VERTEX
  8
0
 10
3117.16162109
 20
1663.6361084
 30
0.0
  0
VERTEX
  8
0
 10
3116.66259766
 20
1662.76953125
 30
0.0
  0
VERTEX
  8
0
 10
3116.16064453
 20
1661.90466309
 30
0.0
  0
VERTEX
  8
0
 10
3115.65551758
 20
1661.04150391
 30
0.0
  0
VERTEX
  8
0
 10
3115.14770508
 20
1660.18017578
 30
0.0
  0
VERTEX
  8
0
 10
3114.63671875
 20
1659.32043457
 30
0.0
  0
VERTEX
  8
0
 10
3114.12304688
 20
1658.46264648
 30
0.0
  0
VERTEX
  8
0
 10
3113.60620117
 20
1657.60644531
 30
0.0
  0
VERTEX
  8
0
 10
3113.08642578
 20
1656.7520752
 30
0.0
  0
VERTEX
  8
0
 10
3112.56396484
 20
1655.89953613
 30
0.0
  0
VERTEX
  8
0
 10
3112.03833008
 20
1655.04870605
 30
0.0
  0
VERTEX
  8
0
 10
3111.51000977
 20
1654.1998291
 30
0.0
  0
VERTEX
  8
0
 10
3110.97851563
 20
1653.35266113
 30
0.0
  0
VERTEX
  8
0
 10
3110.44433594
 20
1652.50732422
 30
0.0
  0
VERTEX
  8
0
 10
3109.90722656
 20
1651.66381836
 30
0.0
  0
VERTEX
  8
0
 10
3109.3671875
 20
1650.82214355
 30
0.0
  0
VERTEX
  8
0
 10
3108.82421875
 20
1649.98242188
 30
0.0
  0
VERTEX
  8
0
 10
3108.27832031
 20
1649.14440918
 30
0.0
  0
VERTEX
  8
0
 10
3107.72973633
 20
1648.30834961
 30
0.0
  0
VERTEX
  8
0
 10
3107.17822266
 20
1647.47424316
 30
0.0
  0
VERTEX
  8
0
 10
3106.62402344
 20
1646.64196777
 30
0.0
  0
VERTEX
  8
0
 10
3106.06665039
 20
1645.81164551
 30
0.0
  0
VERTEX
  8
0
 10
3105.5065918
 20
1644.9831543
 30
0.0
  0
VERTEX
  8
0
 10
3104.94384766
 20
1644.15661621
 30
0.0
  0
VERTEX
  8
0
 10
3104.37792969
 20
1643.33203125
 30
0.0
  0
VERTEX
  8
0
 10
3103.80957031
 20
1642.50939941
 30
0.0
  0
VERTEX
  8
0
 10
3103.23803711
 20
1641.6887207
 30
0.0
  0
VERTEX
  8
0
 10
3102.6640625
 20
1640.86987305
 30
0.0
  0
VERTEX
  8
0
 10
3102.08691406
 20
1640.05310059
 30
0.0
  0
VERTEX
  8
0
 10
3101.50732422
 20
1639.23840332
 30
0.0
  0
VERTEX
  8
0
 10
3100.92456055
 20
1638.42553711
 30
0.0
  0
VERTEX
  8
0
 10
3100.33935547
 20
1637.61474609
 30
0.0
  0
VERTEX
  8
0
 10
3099.7512207
 20
1636.80603027
 30
0.0
  0
VERTEX
  8
0
 10
3099.16040039
 20
1635.99926758
 30
0.0
  0
VERTEX
  8
0
 10
3098.56665039
 20
1635.19445801
 30
0.0
  0
VERTEX
  8
0
 10
3097.97021484
 20
1634.3918457
 30
0.0
  0
VERTEX
  8
0
 10
3097.37109375
 20
1633.59118652
 30
0.0
  0
VERTEX
  8
0
 10
3096.76928711
 20
1632.79260254
 30
0.0
  0
VERTEX
  8
0
 10
3096.16479492
 20
1631.99609375
 30
0.0
  0
VERTEX
  8
0
 10
3095.55737305
 20
1631.20166016
 30
0.0
  0
VERTEX
  8
0
 10
3094.94726563
 20
1630.40930176
 30
0.0
  0
VERTEX
  8
0
 10
3094.33447266
 20
1629.61901855
 30
0.0
  0
VERTEX
  8
0
 10
3093.71899414
 20
1628.83081055
 30
0.0
  0
VERTEX
  8
0
 10
3093.10083008
 20
1628.0447998
 30
0.0
  0
VERTEX
  8
0
 10
3092.47998047
 20
1627.26086426
 30
0.0
  0
VERTEX
  8
0
 10
3091.85644531
 20
1626.47900391
 30
0.0
  0
VERTEX
  8
0
 10
3091.23022461
 20
1625.69934082
 30
0.0
  0
VERTEX
  8
0
 10
3090.60131836
 20
1624.921875
 30
0.0
  0
VERTEX
  8
0
 10
3089.9699707
 20
1624.14660645
 30
0.0
  0
VERTEX
  8
0
 10
3089.33569336
 20
1623.37341309
 30
0.0
  0
VERTEX
  8
0
 10
3088.69897461
 20
1622.60241699
 30
0.0
  0
VERTEX
  8
0
 10
3088.05932617
 20
1621.83361816
 30
0.0
  0
VERTEX
  8
0
 10
3087.41723633
 20
1621.06689453
 30
0.0
  0
VERTEX
  8
0
 10
3086.77246094
 20
1620.30249023
 30
0.0
  0
VERTEX
  8
0
 10
3086.12524414
 20
1619.5402832
 30
0.0
  0
VERTEX
  8
0
 10
3085.4753418
 20
1618.78039551
 30
0.0
  0
VERTEX
  8
0
 10
3084.82275391
 20
1618.02258301
 30
0.0
  0
VERTEX
  8
0
 10
3084.16748047
 20
1617.26708984
 30
0.0
  0
VERTEX
  8
0
 10
3083.50976563
 20
1616.51391602
 30
0.0
  0
VERTEX
  8
0
 10
3082.84960938
 20
1615.76281738
 30
0.0
  0
VERTEX
  8
0
 10
3082.18676758
 20
1615.01416016
 30
0.0
  0
VERTEX
  8
0
 10
3081.52124023
 20
1614.2677002
 30
0.0
  0
VERTEX
  8
0
 10
3080.85327148
 20
1613.52355957
 30
0.0
  0
VERTEX
  8
0
 10
3080.18261719
 20
1612.78161621
 30
0.0
  0
VERTEX
  8
0
 10
3079.50952148
 20
1612.04211426
 30
0.0
  0
VERTEX
  8
0
 10
3078.83398438
 20
1611.30480957
 30
0.0
  0
VERTEX
  8
0
 10
3078.15576172
 20
1610.56982422
 30
0.0
  0
VERTEX
  8
0
 10
3077.4753418
 20
1609.83728027
 30
0.0
  0
VERTEX
  8
0
 10
3076.79199219
 20
1609.10693359
 30
0.0
  0
VERTEX
  8
0
 10
3076.10644531
 20
1608.37902832
 30
0.0
  0
VERTEX
  8
0
 10
3075.41821289
 20
1607.65344238
 30
0.0
  0
VERTEX
  8
0
 10
3074.7277832
 20
1606.93017578
 30
0.0
  0
VERTEX
  8
0
 10
3074.03466797
 20
1606.20935059
 30
0.0
  0
VERTEX
  8
0
 10
3073.33911133
 20
1605.49084473
 30
0.0
  0
VERTEX
  8
0
 10
3072.64111328
 20
1604.77478027
 30
0.0
  0
VERTEX
  8
0
 10
3071.94067383
 20
1604.06115723
 30
0.0
  0
VERTEX
  8
0
 10
3071.23779297
 20
1603.34985352
 30
0.0
  0
VERTEX
  8
0
 10
3070.53222656
 20
1602.64099121
 30
0.0
  0
VERTEX
  8
0
 10
3069.82446289
 20
1601.93457031
 30
0.0
  0
VERTEX
  8
0
 10
3069.11450195
 20
1601.23046875
 30
0.0
  0
VERTEX
  8
0
 10
3068.40185547
 20
1600.52893066
 30
0.0
  0
VERTEX
  8
0
 10
3067.68676758
 20
1599.82971191
 30
0.0
  0
VERTEX
  8
0
 10
3066.96948242
 20
1599.13305664
 30
0.0
  0
VERTEX
  8
0
 10
3066.24975586
 20
1598.43884277
 30
0.0
  0
VERTEX
  8
0
 10
3065.52758789
 20
1597.74707031
 30
0.0
  0
VERTEX
  8
0
 10
3064.80297852
 20
1597.05786133
 30
0.0
  0
VERTEX
  8
0
 10
3064.07617188
 20
1596.37109375
 30
0.0
  0
VERTEX
  8
0
 10
3063.34692383
 20
1595.68676758
 30
0.0
  0
VERTEX
  8
0
 10
3062.61547852
 20
1595.00500488
 30
0.0
  0
VERTEX
  8
0
 10
3061.8815918
 20
1594.32568359
 30
0.0
  0
VERTEX
  8
0
 10
3061.14526367
 20
1593.64892578
 30
0.0
  0
VERTEX
  8
0
 10
3060.40673828
 20
1592.97473145
 30
0.0
  0
VERTEX
  8
0
 10
3059.66601563
 20
1592.30297852
 30
0.0
  0
VERTEX
  8
0
 10
3058.92285156
 20
1591.63378906
 30
0.0
  0
VERTEX
  8
0
 10
3058.17749023
 20
1590.96716309
 30
0.0
  0
VERTEX
  8
0
 10
3057.42993164
 20
1590.30310059
 30
0.0
  0
VERTEX
  8
0
 10
3056.67993164
 20
1589.64172363
 30
0.0
  0
VERTEX
  8
0
 10
3055.92773438
 20
1588.98278809
 30
0.0
  0
VERTEX
  8
0
 10
3055.1730957
 20
1588.32641602
 30
0.0
  0
VERTEX
  8
0
 10
3054.41650391
 20
1587.67272949
 30
0.0
  0
VERTEX
  8
0
 10
3053.6574707
 20
1587.02148438
 30
0.0
  0
VERTEX
  8
0
 10
3052.89624023
 20
1586.37304688
 30
0.0
  0
VERTEX
  8
0
 10
3052.1328125
 20
1585.72705078
 30
0.0
  0
VERTEX
  8
0
 10
3051.36743164
 20
1585.08374023
 30
0.0
  0
VERTEX
  8
0
 10
3050.59960938
 20
1584.44311523
 30
0.0
  0
VERTEX
  8
0
 10
3049.82958984
 20
1583.80505371
 30
0.0
  0
VERTEX
  8
0
 10
3049.05737305
 20
1583.16955566
 30
0.0
  0
VERTEX
  8
0
 10
3048.28295898
 20
1582.53686523
 30
0.0
  0
VERTEX
  8
0
 10
3047.5065918
 20
1581.90673828
 30
0.0
  0
VERTEX
  8
0
 10
3046.7277832
 20
1581.27929688
 30
0.0
  0
VERTEX
  8
0
 10
3045.94702148
 20
1580.65454102
 30
0.0
  0
VERTEX
  8
0
 10
3045.1640625
 20
1580.0324707
 30
0.0
  0
VERTEX
  8
0
 10
3044.37890625
 20
1579.41308594
 30
0.0
  0
VERTEX
  8
0
 10
3043.59179688
 20
1578.79638672
 30
0.0
  0
VERTEX
  8
0
 10
3042.80249023
 20
1578.18237305
 30
0.0
  0
VERTEX
  8
0
 10
3042.01098633
 20
1577.57104492
 30
0.0
  0
VERTEX
  8
0
 10
3041.2175293
 20
1576.96252441
 30
0.0
  0
VERTEX
  8
0
 10
3040.42211914
 20
1576.35656738
 30
0.0
  0
VERTEX
  8
0
 10
3039.62426758
 20
1575.75341797
 30
0.0
  0
VERTEX
  8
0
 10
3038.82470703
 20
1575.15307617
 30
0.0
  0
VERTEX
  8
0
 10
3038.02294922
 20
1574.55541992
 30
0.0
  0
VERTEX
  8
0
 10
3037.21899414
 20
1573.96057129
 30
0.0
  0
VERTEX
  8
0
 10
3036.41333008
 20
1573.3684082
 30
0.0
  0
VERTEX
  8
0
 10
3035.60546875
 20
1572.77905273
 30
0.0
  0
VERTEX
  8
0
 10
3034.7956543
 20
1572.19238281
 30
0.0
  0
VERTEX
  8
0
 10
3033.98364258
 20
1571.60852051
 30
0.0
  0
VERTEX
  8
0
 10
3033.16992188
 20
1571.02746582
 30
0.0
  0
VERTEX
  8
0
 10
3032.35400391
 20
1570.44921875
 30
0.0
  0
VERTEX
  8
0
 10
3031.53613281
 20
1569.8737793
 30
0.0
  0
VERTEX
  8
0
 10
3030.71630859
 20
1569.30114746
 30
0.0
  0
VERTEX
  8
0
 10
3029.89453125
 20
1568.73132324
 30
0.0
  0
VERTEX
  8
0
 10
3029.07080078
 20
1568.16430664
 30
0.0
  0
VERTEX
  8
0
 10
3028.24511719
 20
1567.60009766
 30
0.0
  0
VERTEX
  8
0
 10
3027.41772461
 20
1567.03881836
 30
0.0
  0
VERTEX
  8
0
 10
3026.58813477
 20
1566.48022461
 30
0.0
  0
VERTEX
  8
0
 10
3025.75683594
 20
1565.92456055
 30
0.0
  0
VERTEX
  8
0
 10
3024.92333984
 20
1565.3717041
 30
0.0
  0
VERTEX
  8
0
 10
3024.08813477
 20
1564.82177734
 30
0.0
  0
VERTEX
  8
0
 10
3023.2512207
 20
1564.2746582
 30
0.0
  0
VERTEX
  8
0
 10
3022.41235352
 20
1563.73046875
 30
0.0
  0
VERTEX
  8
0
 10
3021.5715332
 20
1563.18908691
 30
0.0
  0
VERTEX
  8
0
 10
3020.72875977
 20
1562.65063477
 30
0.0
  0
VERTEX
  8
0
 10
3019.88427734
 20
1562.1151123
 30
0.0
  0
VERTEX
  8
0
 10
3019.03808594
 20
1561.58239746
 30
0.0
  0
VERTEX
  8
0
 10
3018.18994141
 20
1561.0526123
 30
0.0
  0
VERTEX
  8
0
 10
3017.33984375
 20
1560.52575684
 30
0.0
  0
VERTEX
  8
0
 10
3016.48828125
 20
1560.00183105
 30
0.0
  0
VERTEX
  8
0
 10
3015.63452148
 20
1559.48071289
 30
0.0
  0
VERTEX
  8
0
 10
3014.77929688
 20
1558.96264648
 30
0.0
  0
VERTEX
  8
0
 10
3013.92211914
 20
1558.44750977
 30
0.0
  0
VERTEX
  8
0
 10
3013.06347656
 20
1557.93518066
 30
0.0
  0
VERTEX
  8
0
 10
3012.20288086
 20
1557.42590332
 30
0.0
  0
VERTEX
  8
0
 10
3011.34033203
 20
1556.91955566
 30
0.0
  0
VERTEX
  8
0
 10
3010.47631836
 20
1556.41625977
 30
0.0
  0
VERTEX
  8
0
 10
3009.6105957
 20
1555.91577148
 30
0.0
  0
VERTEX
  8
0
 10
3008.74316406
 20
1555.41833496
 30
0.0
  0
VERTEX
  8
0
 10
3007.87402344
 20
1554.9239502
 30
0.0
  0
VERTEX
  8
0
 10
3007.00292969
 20
1554.43237305
 30
0.0
  0
VERTEX
  8
0
 10
3006.13037109
 20
1553.94396973
 30
0.0
  0
VERTEX
  8
0
 10
3005.25634766
 20
1553.45837402
 30
0.0
  0
VERTEX
  8
0
 10
3004.38037109
 20
1552.97595215
 30
0.0
  0
VERTEX
  8
0
 10
3003.50268555
 20
1552.49633789
 30
0.0
  0
VERTEX
  8
0
 10
3002.62353516
 20
1552.01989746
 30
0.0
  0
VERTEX
  8
0
 10
3001.74291992
 20
1551.54638672
 30
0.0
  0
VERTEX
  8
0
 10
3000.86035156
 20
1551.07592773
 30
0.0
  0
VERTEX
  8
0
 10
2999.97631836
 20
1550.60852051
 30
0.0
  0
VERTEX
  8
0
 10
2999.09082031
 20
1550.14416504
 30
0.0
  0
VERTEX
  8
0
 10
2998.20361328
 20
1549.68273926
 30
0.0
  0
VERTEX
  8
0
 10
2997.31469727
 20
1549.2244873
 30
0.0
  0
VERTEX
  8
0
 10
2996.42431641
 20
1548.76916504
 30
0.0
  0
VERTEX
  8
0
 10
2995.5324707
 20
1548.31689453
 30
0.0
  0
VERTEX
  8
0
 10
2994.63916016
 20
1547.86779785
 30
0.0
  0
VERTEX
  8
0
 10
2993.74414063
 20
1547.42163086
 30
0.0
  0
VERTEX
  8
0
 10
2992.84765625
 20
1546.9786377
 30
0.0
  0
VERTEX
  8
0
 10
2991.94946289
 20
1546.53869629
 30
0.0
  0
VERTEX
  8
0
 10
2991.05004883
 20
1546.10180664
 30
0.0
  0
VERTEX
  8
0
 10
2990.14892578
 20
1545.66796875
 30
0.0
  0
VERTEX
  8
0
 10
2989.24658203
 20
1545.23730469
 30
0.0
  0
VERTEX
  8
0
 10
2988.3425293
 20
1544.80969238
 30
0.0
  0
VERTEX
  8
0
 10
2987.43701172
 20
1544.38513184
 30
0.0
  0
VERTEX
  8
0
 10
2986.53027344
 20
1543.96374512
 30
0.0
  0
VERTEX
  8
0
 10
2985.62182617
 20
1543.54553223
 30
0.0
  0
VERTEX
  8
0
 10
2984.7121582
 20
1543.13024902
 30
0.0
  0
VERTEX
  8
0
 10
2983.80102539
 20
1542.71826172
 30
0.0
  0
VERTEX
  8
0
 10
2982.88842773
 20
1542.30932617
 30
0.0
  0
VERTEX
  8
0
 10
2981.97460938
 20
1541.90344238
 30
0.0
  0
VERTEX
  8
0
 10
2981.05908203
 20
1541.50085449
 30
0.0
  0
VERTEX
  8
0
 10
2980.14257813
 20
1541.10131836
 30
0.0
  0
VERTEX
  8
0
 10
2979.22436523
 20
1540.70495605
 30
0.0
  0
VERTEX
  8
0
 10
2978.30493164
 20
1540.31164551
 30
0.0
  0
VERTEX
  8
0
 10
2977.38427734
 20
1539.92150879
 30
0.0
  0
VERTEX
  8
0
 10
2976.4621582
 20
1539.53466797
 30
0.0
  0
VERTEX
  8
0
 10
2975.53857422
 20
1539.15087891
 30
0.0
  0
VERTEX
  8
0
 10
2974.61401367
 20
1538.77026367
 30
0.0
  0
VERTEX
  8
0
 10
2973.68798828
 20
1538.39282227
 30
0.0
  0
VERTEX
  8
0
 10
2972.76049805
 20
1538.01855469
 30
0.0
  0
VERTEX
  8
0
 10
2971.83203125
 20
1537.64746094
 30
0.0
  0
VERTEX
  8
0
 10
2970.90209961
 20
1537.27954102
 30
0.0
  0
VERTEX
  8
0
 10
2969.97094727
 20
1536.91491699
 30
0.0
  0
VERTEX
  8
0
 10
2969.03857422
 20
1536.55334473
 30
0.0
  0
VERTEX
  8
0
 10
2968.10498047
 20
1536.19506836
 30
0.0
  0
VERTEX
  8
0
 10
2967.17016602
 20
1535.83984375
 30
0.0
  0
VERTEX
  8
0
 10
2966.23413086
 20
1535.48803711
 30
0.0
  0
VERTEX
  8
0
 10
2965.296875
 20
1535.13928223
 30
0.0
  0
VERTEX
  8
0
 10
2964.35839844
 20
1534.79382324
 30
0.0
  0
VERTEX
  8
0
 10
2963.41894531
 20
1534.45153809
 30
0.0
  0
VERTEX
  8
0
 10
2962.47802734
 20
1534.11242676
 30
0.0
  0
VERTEX
  8
0
 10
2961.53613281
 20
1533.77661133
 30
0.0
  0
VERTEX
  8
0
 10
2960.59301758
 20
1533.4440918
 30
0.0
  0
VERTEX
  8
0
 10
2959.64892578
 20
1533.11462402
 30
0.0
  0
VERTEX
  8
0
 10
2958.70361328
 20
1532.78857422
 30
0.0
  0
VERTEX
  8
0
 10
2957.75708008
 20
1532.46569824
 30
0.0
  0
VERTEX
  8
0
 10
2956.80957031
 20
1532.14599609
 30
0.0
  0
VERTEX
  8
0
 10
2955.86108398
 20
1531.82958984
 30
0.0
  0
VERTEX
  8
0
 10
2954.91137695
 20
1531.51647949
 30
0.0
  0
VERTEX
  8
0
 10
2953.96044922
 20
1531.20654297
 30
0.0
  0
VERTEX
  8
0
 10
2953.00878906
 20
1530.89990234
 30
0.0
  0
VERTEX
  8
0
 10
2952.0559082
 20
1530.59655762
 30
0.0
  0
VERTEX
  8
0
 10
2951.10180664
 20
1530.29650879
 30
0.0
  0
VERTEX
  8
0
 10
2950.14697266
 20
1529.99963379
 30
0.0
  0
VERTEX
  8
0
 10
2949.19091797
 20
1529.70605469
 30
0.0
  0
VERTEX
  8
0
 10
2948.23413086
 20
1529.41577148
 30
0.0
  0
VERTEX
  8
0
 10
2947.27612305
 20
1529.12878418
 30
0.0
  0
VERTEX
  8
0
 10
2946.31713867
 20
1528.84509277
 30
0.0
  0
VERTEX
  8
0
 10
2945.35742188
 20
1528.56469727
 30
0.0
  0
VERTEX
  8
0
 10
2944.39648438
 20
1528.28759766
 30
0.0
  0
VERTEX
  8
0
 10
2943.43481445
 20
1528.01367188
 30
0.0
  0
VERTEX
  8
0
 10
2942.47216797
 20
1527.74316406
 30
0.0
  0
VERTEX
  8
0
 10
2941.50854492
 20
1527.47595215
 30
0.0
  0
VERTEX
  8
0
 10
2940.54394531
 20
1527.21203613
 30
0.0
  0
VERTEX
  8
0
 10
2939.57836914
 20
1526.95129395
 30
0.0
  0
VERTEX
  8
0
 10
2938.61206055
 20
1526.69396973
 30
0.0
  0
VERTEX
  8
0
 10
2937.64501953
 20
1526.44006348
 30
0.0
  0
VERTEX
  8
0
 10
2936.67675781
 20
1526.18933105
 30
0.0
  0
VERTEX
  8
0
 10
2935.70800781
 20
1525.94189453
 30
0.0
  0
VERTEX
  8
0
 10
2934.73828125
 20
1525.69787598
 30
0.0
  0
VERTEX
  8
0
 10
2933.76757813
 20
1525.45715332
 30
0.0
  0
VERTEX
  8
0
 10
2932.79614258
 20
1525.21972656
 30
0.0
  0
VERTEX
  8
0
 10
2931.82397461
 20
1524.9855957
 30
0.0
  0
VERTEX
  8
0
 10
2930.85107422
 20
1524.75488281
 30
0.0
  0
VERTEX
  8
0
 10
2929.87719727
 20
1524.52746582
 30
0.0
  0
VERTEX
  8
0
 10
2928.90258789
 20
1524.3034668
 30
0.0
  0
VERTEX
  8
0
 10
2927.92724609
 20
1524.0826416
 30
0.0
  0
VERTEX
  8
0
 10
2926.95117188
 20
1523.86523438
 30
0.0
  0
VERTEX
  8
0
 10
2925.97436523
 20
1523.65124512
 30
0.0
  0
VERTEX
  8
0
 10
2924.99682617
 20
1523.44055176
 30
0.0
  0
VERTEX
  8
0
 10
2924.01855469
 20
1523.2331543
 30
0.0
  0
VERTEX
  8
0
 10
2923.03955078
 20
1523.0291748
 30
0.0
  0
VERTEX
  8
0
 10
2922.05981445
 20
1522.82861328
 30
0.0
  0
VERTEX
  8
0
 10
2921.07958984
 20
1522.63134766
 30
0.0
  0
VERTEX
  8
0
 10
2920.09863281
 20
1522.43737793
 30
0.0
  0
VERTEX
  8
0
 10
2919.11694336
 20
1522.24682617
 30
0.0
  0
VERTEX
  8
0
 10
2918.13452148
 20
1522.05957031
 30
0.0
  0
VERTEX
  8
0
 10
2917.15161133
 20
1521.87585449
 30
0.0
  0
VERTEX
  8
0
 10
2916.16796875
 20
1521.6953125
 30
0.0
  0
VERTEX
  8
0
 10
2915.18383789
 20
1521.51831055
 30
0.0
  0
VERTEX
  8
0
 10
2914.19897461
 20
1521.34460449
 30
0.0
  0
VERTEX
  8
0
 10
2913.21362305
 20
1521.17419434
 30
0.0
  0
VERTEX
  8
0
 10
2912.22753906
 20
1521.00720215
 30
0.0
  0
VERTEX
  8
0
 10
2911.24121094
 20
1520.84362793
 30
0.0
  0
VERTEX
  8
0
 10
2910.25390625
 20
1520.68347168
 30
0.0
  0
VERTEX
  8
0
 10
2909.26635742
 20
1520.52661133
 30
0.0
  0
VERTEX
  8
0
 10
2908.27832031
 20
1520.37316895
 30
0.0
  0
VERTEX
  8
0
 10
2907.28955078
 20
1520.22314453
 30
0.0
  0
VERTEX
  8
0
 10
2906.30029297
 20
1520.07653809
 30
0.0
  0
VERTEX
  8
0
 10
2905.31079102
 20
1519.93322754
 30
0.0
  0
VERTEX
  8
0
 10
2904.32055664
 20
1519.79333496
 30
0.0
  0
VERTEX
  8
0
 10
2903.32983398
 20
1519.65686035
 30
0.0
  0
VERTEX
  8
0
 10
2902.33886719
 20
1519.52380371
 30
0.0
  0
VERTEX
  8
0
 10
2901.34716797
 20
1519.39416504
 30
0.0
  0
VERTEX
  8
0
 10
2900.35522461
 20
1519.26782227
 30
0.0
  0
VERTEX
  8
0
 10
2899.36279297
 20
1519.14489746
 30
0.0
  0
VERTEX
  8
0
 10
2898.36987305
 20
1519.02539063
 30
0.0
  0
VERTEX
  8
0
 10
2897.37670898
 20
1518.90930176
 30
0.0
  0
VERTEX
  8
0
 10
2896.38305664
 20
1518.79663086
 30
0.0
  0
VERTEX
  8
0
 10
2895.38916016
 20
1518.68737793
 30
0.0
  0
VERTEX
  8
0
 10
2894.39477539
 20
1518.58154297
 30
0.0
  0
VERTEX
  8
0
 10
2893.39990234
 20
1518.47900391
 30
0.0
  0
VERTEX
  8
0
 10
2892.40478516
 20
1518.38000488
 30
0.0
  0
VERTEX
  8
0
 10
2891.40942383
 20
1518.28430176
 30
0.0
  0
VERTEX
  8
0
 10
2890.41381836
 20
1518.19213867
 30
0.0
  0
VERTEX
  8
0
 10
2889.41772461
 20
1518.10327148
 30
0.0
  0
VERTEX
  8
0
 10
2888.42138672
 20
1518.01782227
 30
0.0
  0
VERTEX
  8
0
 10
2887.42480469
 20
1517.93591309
 30
0.0
  0
VERTEX
  8
0
 10
2886.42773438
 20
1517.8572998
 30
0.0
  0
VERTEX
  8
0
 10
2885.43066406
 20
1517.78210449
 30
0.0
  0
VERTEX
  8
0
 10
2884.43310547
 20
1517.71032715
 30
0.0
  0
VERTEX
  8
0
 10
2883.43554688
 20
1517.64208984
 30
0.0
  0
VERTEX
  8
0
 10
2882.43774414
 20
1517.57714844
 30
0.0
  0
VERTEX
  8
0
 10
2881.43945313
 20
1517.515625
 30
0.0
  0
VERTEX
  8
0
 10
2880.44116211
 20
1517.45751953
 30
0.0
  0
VERTEX
  8
0
 10
2879.44262695
 20
1517.4029541
 30
0.0
  0
VERTEX
  8
0
 10
2878.4440918
 20
1517.35168457
 30
0.0
  0
VERTEX
  8
0
 10
2877.44506836
 20
1517.30383301
 30
0.0
  0
VERTEX
  8
0
 10
2876.44628906
 20
1517.25952148
 30
0.0
  0
VERTEX
  8
0
 10
2875.44702148
 20
1517.21850586
 30
0.0
  0
VERTEX
  8
0
 10
2874.44775391
 20
1517.18103027
 30
0.0
  0
VERTEX
  8
0
 10
2873.44824219
 20
1517.14685059
 30
0.0
  0
VERTEX
  8
0
 10
2872.44873047
 20
1517.11621094
 30
0.0
  0
VERTEX
  8
0
 10
2871.44921875
 20
1517.08886719
 30
0.0
  0
VERTEX
  8
0
 10
2870.44946289
 20
1517.06506348
 30
0.0
  0
VERTEX
  8
0
 10
2869.44970703
 20
1517.04467773
 30
0.0
  0
VERTEX
  8
0
 10
2868.44970703
 20
1517.02770996
 30
0.0
  0
VERTEX
  8
0
 10
2867.44995117
 20
1517.01403809
 30
0.0
  0
VERTEX
  8
0
 10
2866.44995117
 20
1517.00390625
 30
0.0
  0
VERTEX
  8
0
 10
2865.44995117
 20
1516.99719238
 30
0.0
  0
VERTEX
  8
0
 10
2864.44995117
 20
1516.99389648
 30
0.0
  0
VERTEX
  8
0
 10
2863.44995117
 20
1516.99414063
 30
0.0
  0
VERTEX
  8
0
 10
2862.44995117
 20
1516.99768066
 30
0.0
  0
VERTEX
  8
0
 10
2861.44995117
 20
1517.00463867
 30
0.0
  0
VERTEX
  8
0
 10
2860.44995117
 20
1517.01501465
 30
0.0
  0
VERTEX
  8
0
 10
2859.45019531
 20
1517.02893066
 30
0.0
  0
VERTEX
  8
0
 10
2858.45019531
 20
1517.04614258
 30
0.0
  0
VERTEX
  8
0
 10
2857.45043945
 20
1517.06689453
 30
0.0
  0
VERTEX
  8
0
 10
2856.45068359
 20
1517.09106445
 30
0.0
  0
VERTEX
  8
0
 10
2855.45117188
 20
1517.11853027
 30
0.0
  0
VERTEX
  8
0
 10
2854.45166016
 20
1517.14953613
 30
0.0
  0
VERTEX
  8
0
 10
2853.45214844
 20
1517.18395996
 30
0.0
  0
VERTEX
  8
0
 10
2852.45288086
 20
1517.22180176
 30
0.0
  0
VERTEX
  8
0
 10
2851.45385742
 20
1517.26293945
 30
0.0
  0
VERTEX
  8
0
 10
2850.45483398
 20
1517.30761719
 30
0.0
  0
VERTEX
  8
0
 10
2849.45605469
 20
1517.35571289
 30
0.0
  0
VERTEX
  8
0
 10
2848.45727539
 20
1517.40722656
 30
0.0
  0
VERTEX
  8
0
 10
2847.45874023
 20
1517.4621582
 30
0.0
  0
VERTEX
  8
0
 10
2846.46044922
 20
1517.52050781
 30
0.0
  0
VERTEX
  8
0
 10
2845.46240234
 20
1517.58227539
 30
0.0
  0
VERTEX
  8
0
 10
2844.46459961
 20
1517.64746094
 30
0.0
  0
VERTEX
  8
0
 10
2843.46679688
 20
1517.71606445
 30
0.0
  0
VERTEX
  8
0
 10
2842.46948242
 20
1517.78820801
 30
0.0
  0
VERTEX
  8
0
 10
2841.47241211
 20
1517.86364746
 30
0.0
  0
VERTEX
  8
0
 10
2840.4753418
 20
1517.94250488
 30
0.0
  0
VERTEX
  8
0
 10
2839.47875977
 20
1518.02478027
 30
0.0
  0
VERTEX
  8
0
 10
2838.48242188
 20
1518.11047363
 30
0.0
  0
VERTEX
  8
0
 10
2837.48657227
 20
1518.19958496
 30
0.0
  0
VERTEX
  8
0
 10
2836.49072266
 20
1518.29199219
 30
0.0
  0
VERTEX
  8
0
 10
2835.49536133
 20
1518.38793945
 30
0.0
  0
VERTEX
  8
0
 10
2834.50024414
 20
1518.48730469
 30
0.0
  0
VERTEX
  8
0
 10
2833.50561523
 20
1518.59008789
 30
0.0
  0
VERTEX
  8
0
 10
2832.51123047
 20
1518.69616699
 30
0.0
  0
VERTEX
  8
0
 10
2831.51733398
 20
1518.80578613
 30
0.0
  0
VERTEX
  8
0
 10
2830.52368164
 20
1518.91870117
 30
0.0
  0
VERTEX
  8
0
 10
2829.53051758
 20
1519.03515625
 30
0.0
  0
VERTEX
  8
0
 10
2828.53759766
 20
1519.15490723
 30
0.0
  0
VERTEX
  8
0
 10
2827.54541016
 20
1519.27807617
 30
0.0
  0
VERTEX
  8
0
 10
2826.5534668
 20
1519.40466309
 30
0.0
  0
VERTEX
  8
0
 10
2825.56176758
 20
1519.5345459
 30
0.0
  0
VERTEX
  8
0
 10
2824.57080078
 20
1519.66796875
 30
0.0
  0
VERTEX
  8
0
 10
2823.58007813
 20
1519.8046875
 30
0.0
  0
VERTEX
  8
0
 10
2822.59008789
 20
1519.94482422
 30
0.0
  0
VERTEX
  8
0
 10
2821.6003418
 20
1520.08837891
 30
0.0
  0
VERTEX
  8
0
 10
2820.61132813
 20
1520.23535156
 30
0.0
  0
VERTEX
  8
0
 10
2819.62255859
 20
1520.38574219
 30
0.0
  0
VERTEX
  8
0
 10
2818.63452148
 20
1520.53942871
 30
0.0
  0
VERTEX
  8
0
 10
2817.64697266
 20
1520.6965332
 30
0.0
  0
VERTEX
  8
0
 10
2816.65991211
 20
1520.85693359
 30
0.0
  0
VERTEX
  8
0
 10
2815.67333984
 20
1521.02087402
 30
0.0
  0
VERTEX
  8
0
 10
2814.6875
 20
1521.18811035
 30
0.0
  0
VERTEX
  8
0
 10
2813.70214844
 20
1521.35864258
 30
0.0
  0
VERTEX
  8
0
 10
2812.71728516
 20
1521.53271484
 30
0.0
  0
VERTEX
  8
0
 10
2811.7331543
 20
1521.71008301
 30
0.0
  0
VERTEX
  8
0
 10
2810.74975586
 20
1521.89074707
 30
0.0
  0
VERTEX
  8
0
 10
2809.7668457
 20
1522.0748291
 30
0.0
  0
VERTEX
  8
0
 10
2808.78442383
 20
1522.2623291
 30
0.0
  0
VERTEX
  8
0
 10
2807.80297852
 20
1522.453125
 30
0.0
  0
VERTEX
  8
0
 10
2806.82202148
 20
1522.64733887
 30
0.0
  0
VERTEX
  8
0
 10
2805.84155273
 20
1522.8449707
 30
0.0
  0
VERTEX
  8
0
 10
2804.86206055
 20
1523.04577637
 30
0.0
  0
VERTEX
  8
0
 10
2803.88305664
 20
1523.25012207
 30
0.0
  0
VERTEX
  8
0
 10
2802.9050293
 20
1523.45776367
 30
0.0
  0
VERTEX
  8
0
 10
2801.92749023
 20
1523.66870117
 30
0.0
  0
VERTEX
  8
0
 10
2800.95068359
 20
1523.88305664
 30
0.0
  0
VERTEX
  8
0
 10
2799.97460938
 20
1524.10070801
 30
0.0
  0
VERTEX
  8
0
 10
2798.99926758
 20
1524.32165527
 30
0.0
  0
VERTEX
  8
0
 10
2798.02490234
 20
1524.54602051
 30
0.0
  0
VERTEX
  8
0
 10
2797.05102539
 20
1524.77368164
 30
0.0
  0
VERTEX
  8
0
 10
2796.078125
 20
1525.00476074
 30
0.0
  0
VERTEX
  8
0
 10
2795.10595703
 20
1525.23913574
 30
0.0
  0
VERTEX
  8
0
 10
2794.13476563
 20
1525.47680664
 30
0.0
  0
VERTEX
  8
0
 10
2793.1640625
 20
1525.71777344
 30
0.0
  0
VERTEX
  8
0
 10
2792.19458008
 20
1525.9621582
 30
0.0
  0
VERTEX
  8
0
 10
2791.22558594
 20
1526.2097168
 30
0.0
  0
VERTEX
  8
0
 10
2790.25756836
 20
1526.46069336
 30
0.0
  0
VERTEX
  8
0
 10
2789.29052734
 20
1526.71496582
 30
0.0
  0
VERTEX
  8
0
 10
2788.32421875
 20
1526.97265625
 30
0.0
  0
VERTEX
  8
0
 10
2787.35888672
 20
1527.23352051
 30
0.0
  0
VERTEX
  8
0
 10
2786.39453125
 20
1527.49768066
 30
0.0
  0
VERTEX
  8
0
 10
2785.4309082
 20
1527.76525879
 30
0.0
  0
VERTEX
  8
0
 10
2784.46826172
 20
1528.03601074
 30
0.0
  0
VERTEX
  8
0
 10
2783.5065918
 20
1528.31018066
 30
0.0
  0
VERTEX
  8
0
 10
2782.54589844
 20
1528.58752441
 30
0.0
  0
VERTEX
  8
0
 10
2781.5859375
 20
1528.86828613
 30
0.0
  0
VERTEX
  8
0
 10
2780.62719727
 20
1529.15222168
 30
0.0
  0
VERTEX
  8
0
 10
2779.66918945
 20
1529.4395752
 30
0.0
  0
VERTEX
  8
0
 10
2778.71240234
 20
1529.73010254
 30
0.0
  0
VERTEX
  8
0
 10
2777.7565918
 20
1530.02392578
 30
0.0
  0
VERTEX
  8
0
 10
2776.80175781
 20
1530.32104492
 30
0.0
  0
VERTEX
  8
0
 10
2775.84790039
 20
1530.62133789
 30
0.0
  0
VERTEX
  8
0
 10
2774.89501953
 20
1530.92504883
 30
0.0
  0
VERTEX
  8
0
 10
2773.94335938
 20
1531.23193359
 30
0.0
  0
VERTEX
  8
0
 10
2772.99267578
 20
1531.54199219
 30
0.0
  0
VERTEX
  8
0
 10
2772.04296875
 20
1531.85546875
 30
0.0
  0
VERTEX
  8
0
 10
2771.09448242
 20
1532.17211914
 30
0.0
  0
VERTEX
  8
0
 10
2770.14697266
 20
1532.49206543
 30
0.0
  0
VERTEX
  8
0
 10
2769.20068359
 20
1532.81518555
 30
0.0
  0
VERTEX
  8
0
 10
2768.25561523
 20
1533.14160156
 30
0.0
  0
VERTEX
  8
0
 10
2767.31152344
 20
1533.47119141
 30
0.0
  0
VERTEX
  8
0
 10
2766.3684082
 20
1533.80407715
 30
0.0
  0
VERTEX
  8
0
 10
2765.42651367
 20
1534.14013672
 30
0.0
  0
VERTEX
  8
0
 10
2764.48583984
 20
1534.47949219
 30
0.0
  0
VERTEX
  8
0
 10
2763.54638672
 20
1534.82202148
 30
0.0
  0
VERTEX
  8
0
 10
2762.6081543
 20
1535.16772461
 30
0.0
  0
VERTEX
  8
0
 10
2761.67089844
 20
1535.51672363
 30
0.0
  0
VERTEX
  8
0
 10
2760.73510742
 20
1535.86889648
 30
0.0
  0
VERTEX
  8
0
 10
2759.80029297
 20
1536.22436523
 30
0.0
  0
VERTEX
  8
0
 10
2758.86669922
 20
1536.58288574
 30
0.0
  0
VERTEX
  8
0
 10
2757.93457031
 20
1536.94470215
 30
0.0
  0
VERTEX
  8
0
 10
2757.00341797
 20
1537.30969238
 30
0.0
  0
VERTEX
  8
0
 10
2756.07373047
 20
1537.67785645
 30
0.0
  0
VERTEX
  8
0
 10
2755.14526367
 20
1538.04919434
 30
0.0
  0
VERTEX
  8
0
 10
2754.21801758
 20
1538.42370605
 30
0.0
  0
VERTEX
  8
0
 10
2753.29223633
 20
1538.8013916
 30
0.0
  0
VERTEX
  8
0
 10
2752.36743164
 20
1539.18225098
 30
0.0
  0
VERTEX
  8
0
 10
2751.4440918
 20
1539.56628418
 30
0.0
  0
VERTEX
  8
0
 10
2750.5222168
 20
1539.95349121
 30
0.0
  0
VERTEX
  8
0
 10
2749.6015625
 20
1540.34387207
 30
0.0
  0
VERTEX
  8
0
 10
2748.68212891
 20
1540.73730469
 30
0.0
  0
VERTEX
  8
0
 10
2747.76416016
 20
1541.13391113
 30
0.0
  0
VERTEX
  8
0
 10
2746.84765625
 20
1541.53381348
 30
0.0
  0
VERTEX
  8
0
 10
2745.93237305
 20
1541.93664551
 30
0.0
  0
VERTEX
  8
0
 10
2745.01855469
 20
1542.34277344
 30
0.0
  0
VERTEX
  8
0
 10
2744.10620117
 20
1542.75195313
 30
0.0
  0
VERTEX
  8
0
 10
2743.19506836
 20
1543.16430664
 30
0.0
  0
VERTEX
  8
0
 10
2742.28540039
 20
1543.57971191
 30
0.0
  0
VERTEX
  8
0
 10
2741.37719727
 20
1543.99829102
 30
0.0
  0
VERTEX
  8
0
 10
2740.47045898
 20
1544.41992188
 30
0.0
  0
VERTEX
  8
0
 10
2739.56518555
 20
1544.84472656
 30
0.0
  0
VERTEX
  8
0
 10
2738.66137695
 20
1545.27258301
 30
0.0
  0
VERTEX
  8
0
 10
2737.7590332
 20
1545.70349121
 30
0.0
  0
VERTEX
  8
0
 10
2736.8581543
 20
1546.13757324
 30
0.0
  0
VERTEX
  8
0
 10
2735.95874023
 20
1546.57470703
 30
0.0
  0
VERTEX
  8
0
 10
2735.06079102
 20
1547.01489258
 30
0.0
  0
VERTEX
  8
0
 10
2734.16430664
 20
1547.45812988
 30
0.0
  0
VERTEX
  8
0
 10
2733.26953125
 20
1547.90454102
 30
0.0
  0
VERTEX
  8
0
 10
2732.3762207
 20
1548.35388184
 30
0.0
  0
VERTEX
  8
0
 10
2731.484375
 20
1548.80639648
 30
0.0
  0
VERTEX
  8
0
 10
2730.59423828
 20
1549.26196289
 30
0.0
  0
VERTEX
  8
0
 10
2729.70556641
 20
1549.72045898
 30
0.0
  0
VERTEX
  8
0
 10
2728.81835938
 20
1550.18212891
 30
0.0
  0
VERTEX
  8
0
 10
2727.93310547
 20
1550.64672852
 30
0.0
  0
VERTEX
  8
0
 10
2727.04907227
 20
1551.11450195
 30
0.0
  0
VERTEX
  8
0
 10
2726.16674805
 20
1551.58520508
 30
0.0
  0
VERTEX
  8
0
 10
2725.28613281
 20
1552.05883789
 30
0.0
  0
VERTEX
  8
0
 10
2724.40698242
 20
1552.53564453
 30
0.0
  0
VERTEX
  8
0
 10
2723.52978516
 20
1553.01538086
 30
0.0
  0
VERTEX
  8
0
 10
2722.65405273
 20
1553.49816895
 30
0.0
  0
VERTEX
  8
0
 10
2721.77978516
 20
1553.98388672
 30
0.0
  0
VERTEX
  8
0
 10
2720.9074707
 20
1554.47265625
 30
0.0
  0
VERTEX
  8
0
 10
2720.03662109
 20
1554.96435547
 30
0.0
  0
VERTEX
  8
0
 10
2719.16772461
 20
1555.45910645
 30
0.0
  0
VERTEX
  8
0
 10
2718.30029297
 20
1555.95678711
 30
0.0
  0
VERTEX
  8
0
 10
2717.43457031
 20
1556.45739746
 30
0.0
  0
VERTEX
  8
0
 10
2716.57080078
 20
1556.96105957
 30
0.0
  0
VERTEX
  8
0
 10
2715.70849609
 20
1557.46765137
 30
0.0
  0
VERTEX
  8
0
 10
2714.84814453
 20
1557.97717285
 30
0.0
  0
VERTEX
  8
0
 10
2713.98925781
 20
1558.48962402
 30
0.0
  0
VERTEX
  8
0
 10
2713.13232422
 20
1559.00500488
 30
0.0
  0
VERTEX
  8
0
 10
2712.27709961
 20
1559.5234375
 30
0.0
  0
VERTEX
  8
0
 10
2711.42382813
 20
1560.04467773
 30
0.0
  0
VERTEX
  8
0
 10
2710.57226563
 20
1560.56884766
 30
0.0
  0
VERTEX
  8
0
 10
2709.72241211
 20
1561.09594727
 30
0.0
  0
VERTEX
  8
0
 10
2708.87451172
 20
1561.62597656
 30
0.0
  0
VERTEX
  8
0
 10
2708.02832031
 20
1562.15893555
 30
0.0
  0
VERTEX
  8
0
 10
2707.18383789
 20
1562.69470215
 30
0.0
  0
VERTEX
  8
0
 10
2706.34155273
 20
1563.23339844
 30
0.0
  0
VERTEX
  8
0
 10
2705.50073242
 20
1563.77502441
 30
0.0
  0
VERTEX
  8
0
 10
2704.66210938
 20
1564.31945801
 30
0.0
  0
VERTEX
  8
0
 10
2703.82519531
 20
1564.86682129
 30
0.0
  0
VERTEX
  8
0
 10
2702.98999023
 20
1565.41699219
 30
0.0
  0
VERTEX
  8
0
 10
2702.15698242
 20
1565.97009277
 30
0.0
  0
VERTEX
  8
0
 10
2701.32568359
 20
1566.52600098
 30
0.0
  0
VERTEX
  8
0
 10
2700.49633789
 20
1567.0847168
 30
0.0
  0
VERTEX
  8
0
 10
2699.66894531
 20
1567.6463623
 30
0.0
  0
VERTEX
  8
0
 10
2698.84350586
 20
1568.21069336
 30
0.0
  0
VERTEX
  8
0
 10
2698.02001953
 20
1568.7779541
 30
0.0
  0
VERTEX
  8
0
 10
2697.19824219
 20
1569.34802246
 30
0.0
  0
VERTEX
  8
0
 10
2696.37866211
 20
1569.92089844
 30
0.0
  0
VERTEX
  8
0
 10
2695.56103516
 20
1570.49658203
 30
0.0
  0
VERTEX
  8
0
 10
2694.74536133
 20
1571.07507324
 30
0.0
  0
VERTEX
  8
0
 10
2693.93164063
 20
1571.65637207
 30
0.0
  0
VERTEX
  8
0
 10
2693.11987305
 20
1572.24047852
 30
0.0
  0
VERTEX
  8
0
 10
2692.31005859
 20
1572.82727051
 30
0.0
  0
VERTEX
  8
0
 10
2691.50244141
 20
1573.41687012
 30
0.0
  0
VERTEX
  8
0
 10
2690.69677734
 20
1574.00927734
 30
0.0
  0
VERTEX
  8
0
 10
2689.89306641
 20
1574.60437012
 30
0.0
  0
VERTEX
  8
0
 10
2689.09155273
 20
1575.20227051
 30
0.0
  0
VERTEX
  8
0
 10
2688.29199219
 20
1575.80285645
 30
0.0
  0
VERTEX
  8
0
 10
2687.49462891
 20
1576.40625
 30
0.0
  0
VERTEX
  8
0
 10
2686.69921875
 20
1577.0123291
 30
0.0
  0
VERTEX
  8
0
 10
2685.90576172
 20
1577.62109375
 30
0.0
  0
VERTEX
  8
0
 10
2685.11474609
 20
1578.23266602
 30
0.0
  0
VERTEX
  8
0
 10
2684.32543945
 20
1578.84692383
 30
0.0
  0
VERTEX
  8
0
 10
2683.53857422
 20
1579.46374512
 30
0.0
  0
VERTEX
  8
0
 10
2682.75366211
 20
1580.08337402
 30
0.0
  0
VERTEX
  8
0
 10
2681.97070313
 20
1580.70568848
 30
0.0
  0
VERTEX
  8
0
 10
2681.19018555
 20
1581.33068848
 30
0.0
  0
VERTEX
  8
0
 10
2680.41162109
 20
1581.95837402
 30
0.0
  0
VERTEX
  8
0
 10
2679.63525391
 20
1582.58874512
 30
0.0
  0
VERTEX
  8
0
 10
2678.86108398
 20
1583.22167969
 30
0.0
  0
VERTEX
  8
0
 10
2678.08911133
 20
1583.8572998
 30
0.0
  0
VERTEX
  8
0
 10
2677.31933594
 20
1584.49560547
 30
0.0
  0
VERTEX
  8
0
 10
2676.55175781
 20
1585.13647461
 30
0.0
  0
VERTEX
  8
0
 10
2675.78637695
 20
1585.7800293
 30
0.0
  0
VERTEX
  8
0
 10
2675.02319336
 20
1586.42614746
 30
0.0
  0
VERTEX
  8
0
 10
2674.26220703
 20
1587.0748291
 30
0.0
  0
VERTEX
  8
0
 10
2673.50341797
 20
1587.72619629
 30
0.0
  0
VERTEX
  8
0
 10
2672.74682617
 20
1588.38024902
 30
0.0
  0
VERTEX
  8
0
 10
2671.99243164
 20
1589.03674316
 30
0.0
  0
VERTEX
  8
0
 10
2671.24047852
 20
1589.69592285
 30
0.0
  0
VERTEX
  8
0
 10
2670.49072266
 20
1590.35754395
 30
0.0
  0
VERTEX
  8
0
 10
2669.74316406
 20
1591.02185059
 30
0.0
  0
VERTEX
  8
0
 10
2668.99804688
 20
1591.68859863
 30
0.0
  0
VERTEX
  8
0
 10
2668.25512695
 20
1592.35803223
 30
0.0
  0
VERTEX
  8
0
 10
2667.5144043
 20
1593.02990723
 30
0.0
  0
VERTEX
  8
0
 10
2666.77612305
 20
1593.7043457
 30
0.0
  0
VERTEX
  8
0
 10
2666.04003906
 20
1594.38134766
 30
0.0
  0
VERTEX
  8
0
 10
2665.30639648
 20
1595.06079102
 30
0.0
  0
VERTEX
  8
0
 10
2664.57495117
 20
1595.74279785
 30
0.0
  0
VERTEX
  8
0
 10
2663.84594727
 20
1596.42736816
 30
0.0
  0
VERTEX
  8
0
 10
2663.11938477
 20
1597.11425781
 30
0.0
  0
VERTEX
  8
0
 10
2662.39501953
 20
1597.80383301
 30
0.0
  0
VERTEX
  8
0
 10
2661.6730957
 20
1598.49572754
 30
0.0
  0
VERTEX
  8
0
 10
2660.95361328
 20
1599.19018555
 30
0.0
  0
VERTEX
  8
0
 10
2660.23632813
 20
1599.88708496
 30
0.0
  0
VERTEX
  8
0
 10
2659.52148438
 20
1600.58642578
 30
0.0
  0
VERTEX
  8
0
 10
2658.80908203
 20
1601.28820801
 30
0.0
  0
VERTEX
  8
0
 10
2658.09912109
 20
1601.99243164
 30
0.0
  0
VERTEX
  8
0
 10
2657.39160156
 20
1602.69909668
 30
0.0
  0
VERTEX
  8
0
 10
2656.68652344
 20
1603.40808105
 30
0.0
  0
VERTEX
  8
0
 10
2655.98388672
 20
1604.11962891
 30
0.0
  0
VERTEX
  8
0
 10
2655.28344727
 20
1604.83349609
 30
0.0
  0
VERTEX
  8
0
 10
2654.58569336
 20
1605.54980469
 30
0.0
  0
VERTEX
  8
0
 10
2653.89038086
 20
1606.26843262
 30
0.0
  0
VERTEX
  8
0
 10
2653.19750977
 20
1606.98950195
 30
0.0
  0
VERTEX
  8
0
 10
2652.50708008
 20
1607.71289063
 30
0.0
  0
VERTEX
  8
0
 10
2651.8190918
 20
1608.4387207
 30
0.0
  0
VERTEX
  8
0
 10
2651.13378906
 20
1609.16674805
 30
0.0
  0
VERTEX
  8
0
 10
2650.45068359
 20
1609.89733887
 30
0.0
  0
VERTEX
  8
0
 10
2649.77026367
 20
1610.63012695
 30
0.0
  0
VERTEX
  8
0
 10
2649.0925293
 20
1611.36523438
 30
0.0
  0
VERTEX
  8
0
 10
2648.41699219
 20
1612.10266113
 30
0.0
  0
VERTEX
  8
0
 10
2647.74414063
 20
1612.84240723
 30
0.0
  0
VERTEX
  8
0
 10
2647.07373047
 20
1613.58447266
 30
0.0
  0
VERTEX
  8
0
 10
2646.40600586
 20
1614.32885742
 30
0.0
  0
VERTEX
  8
0
 10
2645.74072266
 20
1615.07556152
 30
0.0
  0
VERTEX
  8
0
 10
2645.078125
 20
1615.82446289
 30
0.0
  0
VERTEX
  8
0
 10
2644.41796875
 20
1616.57556152
 30
0.0
  0
VERTEX
  8
0
 10
2643.76049805
 20
1617.32910156
 30
0.0
  0
VERTEX
  8
0
 10
2643.10571289
 20
1618.0847168
 30
0.0
  0
VERTEX
  8
0
 10
2642.45336914
 20
1618.84265137
 30
0.0
  0
VERTEX
  8
0
 10
2641.8034668
 20
1619.6027832
 30
0.0
  0
VERTEX
  8
0
 10
2641.15649414
 20
1620.36523438
 30
0.0
  0
VERTEX
  8
0
 10
2640.51196289
 20
1621.12976074
 30
0.0
  0
VERTEX
  8
0
 10
2639.87011719
 20
1621.89660645
 30
0.0
  0
VERTEX
  8
0
 10
2639.23071289
 20
1622.66552734
 30
0.0
  0
VERTEX
  8
0
 10
2638.59423828
 20
1623.43676758
 30
0.0
  0
VERTEX
  8
0
 10
2637.96020508
 20
1624.21008301
 30
0.0
  0
VERTEX
  8
0
 10
2637.32885742
 20
1624.9855957
 30
0.0
  0
VERTEX
  8
0
 10
2636.70019531
 20
1625.76330566
 30
0.0
  0
VERTEX
  8
0
 10
2636.07421875
 20
1626.54309082
 30
0.0
  0
VERTEX
  8
0
 10
2635.45092773
 20
1627.32507324
 30
0.0
  0
VERTEX
  8
0
 10
2634.83032227
 20
1628.10925293
 30
0.0
  0
VERTEX
  8
0
 10
2634.2121582
 20
1628.89538574
 30
0.0
  0
VERTEX
  8
0
 10
2633.59692383
 20
1629.68371582
 30
0.0
  0
VERTEX
  8
0
 10
2632.984375
 20
1630.47424316
 30
0.0
  0
VERTEX
  8
0
 10
2632.37475586
 20
1631.26672363
 30
0.0
  0
VERTEX
  8
0
 10
2631.76757813
 20
1632.06140137
 30
0.0
  0
VERTEX
  8
0
 10
2631.16308594
 20
1632.85803223
 30
0.0
  0
VERTEX
  8
0
 10
2630.56152344
 20
1633.65686035
 30
0.0
  0
VERTEX
  8
0
 10
2629.96264648
 20
1634.4576416
 30
0.0
  0
VERTEX
  8
0
 10
2629.36645508
 20
1635.26049805
 30
0.0
  0
VERTEX
  8
0
 10
2628.77294922
 20
1636.06542969
 30
0.0
  0
VERTEX
  8
0
 10
2628.18237305
 20
1636.87231445
 30
0.0
  0
VERTEX
  8
0
 10
2627.59448242
 20
1637.68127441
 30
0.0
  0
VERTEX
  8
0
 10
2627.00927734
 20
1638.4921875
 30
0.0
  0
VERTEX
  8
0
 10
2626.42700195
 20
1639.30517578
 30
0.0
  0
VERTEX
  8
0
 10
2625.84765625
 20
1640.12011719
 30
0.0
  0
VERTEX
  8
0
 10
2625.27075195
 20
1640.93701172
 30
0.0
  0
VERTEX
  8
0
 10
2624.69677734
 20
1641.75598145
 30
0.0
  0
VERTEX
  8
0
 10
2624.12573242
 20
1642.57678223
 30
0.0
  0
VERTEX
  8
0
 10
2623.55737305
 20
1643.3996582
 30
0.0
  0
VERTEX
  8
0
 10
2622.99194336
 20
1644.22436523
 30
0.0
  0
VERTEX
  8
0
 10
2622.42919922
 20
1645.05102539
 30
0.0
  0
VERTEX
  8
0
 10
2621.86938477
 20
1645.87963867
 30
0.0
  0
VERTEX
  8
0
 10
2621.3125
 20
1646.71020508
 30
0.0
  0
VERTEX
  8
0
 10
2620.75830078
 20
1647.54260254
 30
0.0
  0
VERTEX
  8
0
 10
2620.20703125
 20
1648.37695313
 30
0.0
  0
VERTEX
  8
0
 10
2619.65869141
 20
1649.21313477
 30
0.0
  0
VERTEX
  8
0
 10
2619.11303711
 20
1650.05126953
 30
0.0
  0
VERTEX
  8
0
 10
2618.5703125
 20
1650.89123535
 30
0.0
  0
VERTEX
  8
0
 10
2618.03051758
 20
1651.73303223
 30
0.0
  0
VERTEX
  8
0
 10
2617.49365234
 20
1652.57666016
 30
0.0
  0
VERTEX
  8
0
 10
2616.9597168
 20
1653.42211914
 30
0.0
  0
VERTEX
  8
0
 10
2616.42871094
 20
1654.26940918
 30
0.0
  0
VERTEX
  8
0
 10
2615.90039063
 20
1655.11853027
 30
0.0
  0
VERTEX
  8
0
 10
2615.375
 20
1655.96948242
 30
0.0
  0
VERTEX
  8
0
 10
2614.8527832
 20
1656.82214355
 30
0.0
  0
VERTEX
  8
0
 10
2614.33325195
 20
1657.67663574
 30
0.0
  0
VERTEX
  8
0
 10
2613.81665039
 20
1658.53295898
 30
0.0
  0
VERTEX
  8
0
 10
2613.30322266
 20
1659.39099121
 30
0.0
  0
VERTEX
  8
0
 10
2612.79248047
 20
1660.25073242
 30
0.0
  0
VERTEX
  8
0
 10
2612.28491211
 20
1661.11230469
 30
0.0
  0
VERTEX
  8
0
 10
2611.7800293
 20
1661.97558594
 30
0.0
  0
VERTEX
  8
0
 10
2611.27832031
 20
1662.84057617
 30
0.0
  0
VERTEX
  8
0
 10
2610.77954102
 20
1663.70727539
 30
0.0
  0
VERTEX
  8
0
 10
2610.28369141
 20
1664.57568359
 30
0.0
  0
VERTEX
  8
0
 10
2609.79077148
 20
1665.44580078
 30
0.0
  0
VERTEX
  8
0
 10
2609.30102539
 20
1666.31762695
 30
0.0
  0
VERTEX
  8
0
 10
2608.81420898
 20
1667.19104004
 30
0.0
  0
VERTEX
  8
0
 10
2608.33032227
 20
1668.06616211
 30
0.0
  0
VERTEX
  8
0
 10
2607.84936523
 20
1668.94299316
 30
0.0
  0
VERTEX
  8
0
 10
2607.37133789
 20
1669.82141113
 30
0.0
  0
VERTEX
  8
0
 10
2606.89648438
 20
1670.70153809
 30
0.0
  0
VERTEX
  8
0
 10
2606.42480469
 20
1671.58312988
 30
0.0
  0
VERTEX
  8
0
 10
2605.95581055
 20
1672.46643066
 30
0.0
  0
VERTEX
  8
0
 10
2605.48999023
 20
1673.35131836
 30
0.0
  0
VERTEX
  8
0
 10
2605.02734375
 20
1674.23779297
 30
0.0
  0
VERTEX
  8
0
 10
2604.56762695
 20
1675.12585449
 30
0.0
  0
VERTEX
  8
0
 10
2604.11083984
 20
1676.01550293
 30
0.0
  0
VERTEX
  8
0
 10
2603.65722656
 20
1676.90673828
 30
0.0
  0
VERTEX
  8
0
 10
2603.20678711
 20
1677.79943848
 30
0.0
  0
VERTEX
  8
0
 10
2602.75927734
 20
1678.69372559
 30
0.0
  0
VERTEX
  8
0
 10
2602.31469727
 20
1679.58959961
 30
0.0
  0
VERTEX
  8
0
 10
2601.87353516
 20
1680.48693848
 30
0.0
  0
VERTEX
  8
0
 10
2601.43505859
 20
1681.38574219
 30
0.0
  0
VERTEX
  8
0
 10
2601.0
 20
1682.28601074
 30
0.0
  0
VERTEX
  8
0
 10
2600.56787109
 20
1683.18786621
 30
0.0
  0
VERTEX
  8
0
 10
2600.13867188
 20
1684.09118652
 30
0.0
  0
VERTEX
  8
0
 10
2599.71289063
 20
1684.99584961
 30
0.0
  0
VERTEX
  8
0
 10
2599.29003906
 20
1685.90209961
 30
0.0
  0
VERTEX
  8
0
 10
2598.87036133
 20
1686.80981445
 30
0.0
  0
VERTEX
  8
0
 10
2598.45361328
 20
1687.71887207
 30
0.0
  0
VERTEX
  8
0
 10
2598.0402832
 20
1688.62939453
 30
0.0
  0
VERTEX
  8
0
 10
2597.62988281
 20
1689.54125977
 30
0.0
  0
VERTEX
  8
0
 10
2597.22265625
 20
1690.45458984
 30
0.0
  0
VERTEX
  8
0
 10
2596.81835938
 20
1691.3692627
 30
0.0
  0
VERTEX
  8
0
 10
2596.41748047
 20
1692.28540039
 30
0.0
  0
VERTEX
  8
0
 10
2596.01953125
 20
1693.20288086
 30
0.0
  0
VERTEX
  8
0
 10
2595.625
 20
1694.1217041
 30
0.0
  0
VERTEX
  8
0
 10
2595.23339844
 20
1695.04187012
 30
0.0
  0
VERTEX
  8
0
 10
2594.8449707
 20
1695.96337891
 30
0.0
  0
VERTEX
  8
0
 10
2594.4597168
 20
1696.8861084
 30
0.0
  0
VERTEX
  8
0
 10
2594.07763672
 20
1697.81030273
 30
0.0
  0
VERTEX
  8
0
 10
2593.69897461
 20
1698.73571777
 30
0.0
  0
VERTEX
  8
0
 10
2593.32324219
 20
1699.66247559
 30
0.0
  0
VERTEX
  8
0
 10
2592.95068359
 20
1700.5904541
 30
0.0
  0
VERTEX
  8
0
 10
2592.58129883
 20
1701.51977539
 30
0.0
  0
VERTEX
  8
0
 10
2592.21508789
 20
1702.45031738
 30
0.0
  0
VERTEX
  8
0
 10
2591.85205078
 20
1703.38208008
 30
0.0
  0
VERTEX
  8
0
 10
2591.4921875
 20
1704.31518555
 30
0.0
  0
VERTEX
  8
0
 10
2591.13574219
 20
1705.24938965
 30
0.0
  0
VERTEX
  8
0
 10
2590.78222656
 20
1706.18493652
 30
0.0
  0
VERTEX
  8
0
 10
2590.43212891
 20
1707.12158203
 30
0.0
  0
VERTEX
  8
0
 10
2590.08520508
 20
1708.05944824
 30
0.0
  0
VERTEX
  8
0
 10
2589.74145508
 20
1708.99853516
 30
0.0
  0
VERTEX
  8
0
 10
2589.40087891
 20
1709.9387207
 30
0.0
  0
VERTEX
  8
0
 10
2589.06347656
 20
1710.88012695
 30
0.0
  0
VERTEX
  8
0
 10
2588.72949219
 20
1711.82263184
 30
0.0
  0
VERTEX
  8
0
 10
2588.39868164
 20
1712.76635742
 30
0.0
  0
VERTEX
  8
0
 10
2588.07104492
 20
1713.71118164
 30
0.0
  0
VERTEX
  8
0
 10
2587.74658203
 20
1714.65710449
 30
0.0
  0
VERTEX
  8
0
 10
2587.42553711
 20
1715.60412598
 30
0.0
  0
VERTEX
  8
0
 10
2587.10766602
 20
1716.55224609
 30
0.0
  0
VERTEX
  8
0
 10
2586.79296875
 20
1717.50146484
 30
0.0
  0
VERTEX
  8
0
 10
2586.48168945
 20
1718.45178223
 30
0.0
  0
VERTEX
  8
0
 10
2586.17358398
 20
1719.40307617
 30
0.0
  0
VERTEX
  8
0
 10
2585.86865234
 20
1720.35546875
 30
0.0
  0
VERTEX
  8
0
 10
2585.56713867
 20
1721.30895996
 30
0.0
  0
VERTEX
  8
0
 10
2585.26879883
 20
1722.26342773
 30
0.0
  0
VERTEX
  8
0
 10
2584.97363281
 20
1723.21887207
 30
0.0
  0
VERTEX
  8
0
 10
2584.68188477
 20
1724.17529297
 30
0.0
  0
VERTEX
  8
0
 10
2584.39331055
 20
1725.1328125
 30
0.0
  0
VERTEX
  8
0
 10
2584.1081543
 20
1726.09130859
 30
0.0
  0
VERTEX
  8
0
 10
2583.82617188
 20
1727.05078125
 30
0.0
  0
VERTEX
  8
0
 10
2583.54760742
 20
1728.0111084
 30
0.0
  0
VERTEX
  8
0
 10
2583.2722168
 20
1728.97241211
 30
0.0
  0
VERTEX
  8
0
 10
2583.00024414
 20
1729.93469238
 30
0.0
  0
VERTEX
  8
0
 10
2582.73144531
 20
1730.89794922
 30
0.0
  0
VERTEX
  8
0
 10
2582.46582031
 20
1731.86206055
 30
0.0
  0
VERTEX
  8
0
 10
2582.20385742
 20
1732.82714844
 30
0.0
  0
VERTEX
  8
0
 10
2581.94482422
 20
1733.79296875
 30
0.0
  0
VERTEX
  8
0
 10
2581.68945313
 20
1734.75976563
 30
0.0
  0
VERTEX
  8
0
 10
2581.43725586
 20
1735.72753906
 30
0.0
  0
VERTEX
  8
0
 10
2581.18823242
 20
1736.69604492
 30
0.0
  0
VERTEX
  8
0
 10
2580.94262695
 20
1737.66540527
 30
0.0
  0
VERTEX
  8
0
 10
2580.70043945
 20
1738.63562012
 30
0.0
  0
VERTEX
  8
0
 10
2580.46142578
 20
1739.60668945
 30
0.0
  0
VERTEX
  8
0
 10
2580.22583008
 20
1740.57849121
 30
0.0
  0
VERTEX
  8
0
 10
2579.99365234
 20
1741.55114746
 30
0.0
  0
VERTEX
  8
0
 10
2579.76464844
 20
1742.52453613
 30
0.0
  0
VERTEX
  8
0
 10
2579.5390625
 20
1743.4987793
 30
0.0
  0
VERTEX
  8
0
 10
2579.31689453
 20
1744.47375488
 30
0.0
  0
VERTEX
  8
0
 10
2579.09790039
 20
1745.44946289
 30
0.0
  0
VERTEX
  8
0
 10
2578.88232422
 20
1746.42602539
 30
0.0
  0
VERTEX
  8
0
 10
2578.67016602
 20
1747.40319824
 30
0.0
  0
VERTEX
  8
0
 10
2578.46118164
 20
1748.38122559
 30
0.0
  0
VERTEX
  8
0
 10
2578.25561523
 20
1749.35986328
 30
0.0
  0
VERTEX
  8
0
 10
2578.0534668
 20
1750.33911133
 30
0.0
  0
VERTEX
  8
0
 10
2577.85473633
 20
1751.31921387
 30
0.0
  0
VERTEX
  8
0
 10
2577.65917969
 20
1752.29992676
 30
0.0
  0
VERTEX
  8
0
 10
2577.46704102
 20
1753.28125
 30
0.0
  0
VERTEX
  8
0
 10
2577.27832031
 20
1754.26330566
 30
0.0
  0
VERTEX
  8
0
 10
2577.09301758
 20
1755.24597168
 30
0.0
  0
VERTEX
  8
0
 10
2576.91088867
 20
1756.22924805
 30
0.0
  0
VERTEX
  8
0
 10
2576.73242188
 20
1757.21325684
 30
0.0
  0
VERTEX
  8
0
 10
2576.55712891
 20
1758.19775391
 30
0.0
  0
VERTEX
  8
0
 10
2576.38525391
 20
1759.18286133
 30
0.0
  0
VERTEX
  8
0
 10
2576.21655273
 20
1760.1685791
 30
0.0
  0
VERTEX
  8
0
 10
2576.05151367
 20
1761.15478516
 30
0.0
  0
VERTEX
  8
0
 10
2575.88989258
 20
1762.14160156
 30
0.0
  0
VERTEX
  8
0
 10
2575.73144531
 20
1763.12902832
 30
0.0
  0
VERTEX
  8
0
 10
2575.57641602
 20
1764.11694336
 30
0.0
  0
VERTEX
  8
0
 10
2575.42480469
 20
1765.10534668
 30
0.0
  0
VERTEX
  8
0
 10
2575.27661133
 20
1766.09436035
 30
0.0
  0
VERTEX
  8
0
 10
2575.13183594
 20
1767.08374023
 30
0.0
  0
VERTEX
  8
0
 10
2574.99047852
 20
1768.07373047
 30
0.0
  0
VERTEX
  8
0
 10
2574.85229492
 20
1769.06420898
 30
0.0
  0
VERTEX
  8
0
 10
2574.71777344
 20
1770.05505371
 30
0.0
  0
VERTEX
  8
0
 10
2574.58642578
 20
1771.04638672
 30
0.0
  0
VERTEX
  8
0
 10
2574.45849609
 20
1772.03820801
 30
0.0
  0
VERTEX
  8
0
 10
2574.33422852
 20
1773.03039551
 30
0.0
  0
VERTEX
  8
0
 10
2574.21313477
 20
1774.02307129
 30
0.0
  0
VERTEX
  8
0
 10
2574.09545898
 20
1775.01611328
 30
0.0
  0
VERTEX
  8
0
 10
2573.98120117
 20
1776.00964355
 30
0.0
  0
VERTEX
  8
0
 10
2573.87036133
 20
1777.00341797
 30
0.0
  0
VERTEX
  8
0
 10
2573.76293945
 20
1777.99768066
 30
0.0
  0
VERTEX
  8
0
 10
2573.65893555
 20
1778.9921875
 30
0.0
  0
VERTEX
  8
0
 10
2573.55834961
 20
1779.98718262
 30
0.0
  0
VERTEX
  8
0
 10
2573.4609375
 20
1780.98242188
 30
0.0
  0
VERTEX
  8
0
 10
2573.3671875
 20
1781.97802734
 30
0.0
  0
VERTEX
  8
0
 10
2573.27685547
 20
1782.97387695
 30
0.0
  0
VERTEX
  8
0
 10
2573.18994141
 20
1783.97009277
 30
0.0
  0
VERTEX
  8
0
 10
2573.10620117
 20
1784.96655273
 30
0.0
  0
VERTEX
  8
0
 10
2573.02612305
 20
1785.96337891
 30
0.0
  0
VERTEX
  8
0
 10
2572.94946289
 20
1786.96044922
 30
0.0
  0
VERTEX
  8
0
 10
2572.87597656
 20
1787.95776367
 30
0.0
  0
VERTEX
  8
0
 10
2572.80615234
 20
1788.95532227
 30
0.0
  0
VERTEX
  8
0
 10
2572.73974609
 20
1789.953125
 30
0.0
  0
VERTEX
  8
0
 10
2572.67675781
 20
1790.9510498
 30
0.0
  0
VERTEX
  8
0
 10
2572.61694336
 20
1791.94934082
 30
0.0
  0
VERTEX
  8
0
 10
2572.56079102
 20
1792.94775391
 30
0.0
  0
VERTEX
  8
0
 10
2572.50805664
 20
1793.94628906
 30
0.0
  0
VERTEX
  8
0
 10
2572.45849609
 20
1794.94506836
 30
0.0
  0
VERTEX
  8
0
 10
2572.41259766
 20
1795.9440918
 30
0.0
  0
VERTEX
  8
0
 10
2572.37011719
 20
1796.94311523
 30
0.0
  0
VERTEX
  8
0
 10
2572.33105469
 20
1797.94238281
 30
0.0
  0
VERTEX
  8
0
 10
2572.29541016
 20
1798.94177246
 30
0.0
  0
VERTEX
  8
0
 10
2572.26293945
 20
1799.94128418
 30
0.0
  0
VERTEX
  8
0
 10
2572.23413086
 20
1800.9407959
 30
0.0
  0
VERTEX
  8
0
 10
2572.20874023
 20
1801.94055176
 30
0.0
  0
VERTEX
  8
0
 10
2572.18676758
 20
1802.94030762
 30
0.0
  0
VERTEX
  8
0
 10
2572.16821289
 20
1803.94006348
 30
0.0
  0
VERTEX
  8
0
 10
2572.15307617
 20
1804.93994141
 30
0.0
  0
VERTEX
  8
0
 10
2572.14135742
 20
1805.93994141
 30
0.0
  0
VERTEX
  8
0
 10
2572.13305664
 20
1806.93981934
 30
0.0
  0
VERTEX
  8
0
 10
2572.12817383
 20
1807.93981934
 30
0.0
  0
VERTEX
  8
0
 10
2572.12670898
 20
1808.85778809
 30
0.0
  0
SEQEND
  0
ENDSEC
  0
SECTION
  2
OBJECTS
  0
ENDSEC
  0
EOF
